<?xml version="1.0" standalone="no"?>
<!DOCTYPE svg PUBLIC "-//W3C//DTD SVG 20010904//EN"
 "http://www.w3.org/TR/2001/REC-SVG-20010904/DTD/svg10.dtd">
<svg version="1.0" xmlns="http://www.w3.org/2000/svg"
 width="720.000000pt" height="720.000000pt" viewBox="0 0 720.000000 720.000000"
 preserveAspectRatio="xMidYMid meet">
<metadata>
Created by potrace 1.14, written by Peter Selinger 2001-2017
</metadata>
<g transform="translate(0.000000,720.000000) scale(0.100000,-0.100000)"
fill="#000000" stroke="none">
<path d="M2608 7195 c-2 -1 -46 -5 -98 -9 -95 -6 -145 -11 -230 -23 -25 -3
-52 -7 -60 -8 -76 -9 -229 -38 -322 -61 -393 -96 -715 -247 -959 -450 -134
-112 -256 -262 -324 -399 -16 -33 -30 -62 -31 -65 0 -3 -6 -17 -12 -32 -51
-123 -66 -230 -66 -463 0 -207 5 -259 40 -381 14 -49 26 -94 28 -101 1 -7 5
-15 8 -19 4 -3 3 -16 -1 -28 -5 -11 -11 -40 -15 -64 -3 -23 -10 -50 -15 -60
-36 -67 -60 -340 -40 -467 9 -63 10 -69 29 -149 27 -119 101 -287 191 -438
126 -207 413 -518 634 -686 6 -4 28 -21 50 -37 22 -17 42 -33 45 -36 6 -8 259
-175 315 -208 138 -83 427 -228 570 -286 50 -20 104 -43 120 -50 41 -18 385
-133 455 -152 137 -36 298 -75 329 -79 18 -2 37 -6 41 -9 7 -4 132 -27 260
-46 116 -17 121 -18 290 -35 41 -4 190 -8 330 -8 284 -1 398 6 575 35 33 6 71
12 85 13 14 2 39 6 55 10 17 3 39 8 50 11 146 31 325 88 465 149 l95 42 67
-13 c36 -6 109 -24 162 -38 53 -14 105 -28 115 -30 61 -12 143 -74 162 -122
28 -73 0 -121 -93 -162 -60 -26 -64 -28 -168 -66 -227 -81 -357 -174 -472
-335 -41 -58 -98 -163 -126 -230 -6 -14 -20 -45 -31 -70 -38 -87 -139 -390
-166 -500 -17 -68 -19 -156 -4 -201 24 -70 108 -178 244 -315 196 -196 358
-313 535 -385 65 -26 253 -83 310 -94 14 -3 39 -8 55 -11 17 -4 41 -8 55 -9
14 -2 39 -6 55 -9 17 -3 55 -7 85 -10 l56 -5 42 197 c24 108 45 208 48 222 2
14 9 47 15 73 14 62 16 60 -81 73 -151 18 -395 103 -545 187 -303 171 -498
373 -510 527 -5 61 7 83 71 133 77 61 312 176 391 191 227 45 272 91 328 335
51 220 76 332 80 356 3 17 8 37 10 45 2 8 7 31 10 50 3 19 7 46 10 60 24 125
24 294 0 365 -26 79 -80 151 -151 202 l-24 18 26 39 c105 153 169 362 173 558
3 168 8 189 49 223 111 89 239 240 309 365 31 54 79 173 87 214 3 11 11 52 19
89 19 87 20 383 3 487 -45 265 -165 513 -367 765 -86 108 -283 304 -386 385
-10 8 -39 31 -63 51 -116 93 -320 228 -515 342 -100 59 -380 192 -520 248 -44
17 -93 37 -110 44 -33 14 -323 113 -352 120 -10 3 -43 12 -73 21 -57 16 -270
72 -305 80 -11 2 -33 7 -50 10 -16 2 -46 9 -65 14 -19 5 -62 14 -95 19 -33 6
-69 12 -81 15 -12 2 -45 7 -74 11 -29 4 -62 9 -74 11 -12 3 -39 7 -61 9 -22 2
-78 8 -125 14 -47 6 -116 13 -155 16 -72 7 -611 16 -617 10z"/>
</g>
</svg>
